<mxfile host="app.diagrams.net" modified="2023-05-28T19:12:16.833Z" agent="Mozilla/5.0 (Windows NT 10.0; Win64; x64) AppleWebKit/537.36 (KHTML, like Gecko) Chrome/113.0.0.0 Safari/537.36" etag="qHjqknRw_DkybC6LRp6u" version="21.3.4" type="github">
  <diagram name="Page-1" id="1IcJq3T-kLSbelK-NKJS">
    <mxGraphModel dx="1877" dy="573" grid="1" gridSize="10" guides="1" tooltips="1" connect="1" arrows="1" fold="1" page="1" pageScale="1" pageWidth="827" pageHeight="1169" math="0" shadow="0">
      <root>
        <mxCell id="0" />
        <mxCell id="1" parent="0" />
        <mxCell id="zvUFs4yb7yLBPP39evHk-2" style="edgeStyle=orthogonalEdgeStyle;rounded=0;orthogonalLoop=1;jettySize=auto;html=1;entryX=0.5;entryY=0;entryDx=0;entryDy=0;" edge="1" parent="1" source="zvUFs4yb7yLBPP39evHk-1" target="zvUFs4yb7yLBPP39evHk-3">
          <mxGeometry relative="1" as="geometry">
            <mxPoint x="550" y="90" as="targetPoint" />
          </mxGeometry>
        </mxCell>
        <mxCell id="zvUFs4yb7yLBPP39evHk-4" style="edgeStyle=orthogonalEdgeStyle;rounded=0;orthogonalLoop=1;jettySize=auto;html=1;" edge="1" parent="1" source="zvUFs4yb7yLBPP39evHk-1" target="zvUFs4yb7yLBPP39evHk-5">
          <mxGeometry relative="1" as="geometry">
            <mxPoint x="190" y="110" as="targetPoint" />
            <Array as="points">
              <mxPoint x="220" y="50" />
            </Array>
          </mxGeometry>
        </mxCell>
        <mxCell id="zvUFs4yb7yLBPP39evHk-1" value="1" style="ellipse;whiteSpace=wrap;html=1;aspect=fixed;" vertex="1" parent="1">
          <mxGeometry x="290" y="20" width="60" height="60" as="geometry" />
        </mxCell>
        <mxCell id="zvUFs4yb7yLBPP39evHk-69" style="edgeStyle=orthogonalEdgeStyle;rounded=0;orthogonalLoop=1;jettySize=auto;html=1;" edge="1" parent="1" source="zvUFs4yb7yLBPP39evHk-3" target="zvUFs4yb7yLBPP39evHk-67">
          <mxGeometry relative="1" as="geometry">
            <Array as="points">
              <mxPoint x="680" y="120" />
              <mxPoint x="680" y="1470" />
            </Array>
          </mxGeometry>
        </mxCell>
        <mxCell id="zvUFs4yb7yLBPP39evHk-3" value="2" style="ellipse;whiteSpace=wrap;html=1;aspect=fixed;" vertex="1" parent="1">
          <mxGeometry x="490" y="90" width="60" height="60" as="geometry" />
        </mxCell>
        <mxCell id="zvUFs4yb7yLBPP39evHk-6" style="edgeStyle=orthogonalEdgeStyle;rounded=0;orthogonalLoop=1;jettySize=auto;html=1;" edge="1" parent="1" source="zvUFs4yb7yLBPP39evHk-5" target="zvUFs4yb7yLBPP39evHk-7">
          <mxGeometry relative="1" as="geometry">
            <mxPoint x="300" y="200" as="targetPoint" />
          </mxGeometry>
        </mxCell>
        <mxCell id="zvUFs4yb7yLBPP39evHk-8" style="edgeStyle=orthogonalEdgeStyle;rounded=0;orthogonalLoop=1;jettySize=auto;html=1;" edge="1" parent="1" source="zvUFs4yb7yLBPP39evHk-5" target="zvUFs4yb7yLBPP39evHk-9">
          <mxGeometry relative="1" as="geometry">
            <mxPoint x="110" y="190" as="targetPoint" />
            <Array as="points">
              <mxPoint x="110" y="140" />
            </Array>
          </mxGeometry>
        </mxCell>
        <mxCell id="zvUFs4yb7yLBPP39evHk-5" value="3" style="ellipse;whiteSpace=wrap;html=1;aspect=fixed;" vertex="1" parent="1">
          <mxGeometry x="180" y="90" width="70" height="70" as="geometry" />
        </mxCell>
        <mxCell id="zvUFs4yb7yLBPP39evHk-10" style="edgeStyle=orthogonalEdgeStyle;rounded=0;orthogonalLoop=1;jettySize=auto;html=1;entryX=1.02;entryY=0.69;entryDx=0;entryDy=0;entryPerimeter=0;" edge="1" parent="1" source="zvUFs4yb7yLBPP39evHk-7" target="zvUFs4yb7yLBPP39evHk-9">
          <mxGeometry relative="1" as="geometry">
            <Array as="points">
              <mxPoint x="205" y="200" />
              <mxPoint x="205" y="211" />
            </Array>
          </mxGeometry>
        </mxCell>
        <mxCell id="zvUFs4yb7yLBPP39evHk-7" value="4" style="ellipse;whiteSpace=wrap;html=1;aspect=fixed;" vertex="1" parent="1">
          <mxGeometry x="270" y="170" width="60" height="60" as="geometry" />
        </mxCell>
        <mxCell id="zvUFs4yb7yLBPP39evHk-11" style="edgeStyle=orthogonalEdgeStyle;rounded=0;orthogonalLoop=1;jettySize=auto;html=1;" edge="1" parent="1" source="zvUFs4yb7yLBPP39evHk-9" target="zvUFs4yb7yLBPP39evHk-12">
          <mxGeometry relative="1" as="geometry">
            <mxPoint x="110" y="270" as="targetPoint" />
          </mxGeometry>
        </mxCell>
        <mxCell id="zvUFs4yb7yLBPP39evHk-9" value="5" style="ellipse;whiteSpace=wrap;html=1;aspect=fixed;" vertex="1" parent="1">
          <mxGeometry x="80" y="170" width="60" height="60" as="geometry" />
        </mxCell>
        <mxCell id="zvUFs4yb7yLBPP39evHk-13" style="edgeStyle=orthogonalEdgeStyle;rounded=0;orthogonalLoop=1;jettySize=auto;html=1;" edge="1" parent="1" source="zvUFs4yb7yLBPP39evHk-12" target="zvUFs4yb7yLBPP39evHk-14">
          <mxGeometry relative="1" as="geometry">
            <mxPoint x="110" y="570" as="targetPoint" />
          </mxGeometry>
        </mxCell>
        <mxCell id="zvUFs4yb7yLBPP39evHk-15" style="edgeStyle=orthogonalEdgeStyle;rounded=0;orthogonalLoop=1;jettySize=auto;html=1;" edge="1" parent="1" source="zvUFs4yb7yLBPP39evHk-12" target="zvUFs4yb7yLBPP39evHk-16">
          <mxGeometry relative="1" as="geometry">
            <mxPoint x="240" y="320" as="targetPoint" />
            <Array as="points">
              <mxPoint x="240" y="280" />
            </Array>
          </mxGeometry>
        </mxCell>
        <mxCell id="zvUFs4yb7yLBPP39evHk-12" value="6" style="ellipse;whiteSpace=wrap;html=1;aspect=fixed;" vertex="1" parent="1">
          <mxGeometry x="80" y="250" width="60" height="60" as="geometry" />
        </mxCell>
        <mxCell id="zvUFs4yb7yLBPP39evHk-42" style="edgeStyle=orthogonalEdgeStyle;rounded=0;orthogonalLoop=1;jettySize=auto;html=1;" edge="1" parent="1" source="zvUFs4yb7yLBPP39evHk-14" target="zvUFs4yb7yLBPP39evHk-44">
          <mxGeometry relative="1" as="geometry">
            <mxPoint x="110" y="860" as="targetPoint" />
          </mxGeometry>
        </mxCell>
        <mxCell id="zvUFs4yb7yLBPP39evHk-45" style="edgeStyle=orthogonalEdgeStyle;rounded=0;orthogonalLoop=1;jettySize=auto;html=1;" edge="1" parent="1" source="zvUFs4yb7yLBPP39evHk-14" target="zvUFs4yb7yLBPP39evHk-46">
          <mxGeometry relative="1" as="geometry">
            <mxPoint x="-150" y="840" as="targetPoint" />
          </mxGeometry>
        </mxCell>
        <mxCell id="zvUFs4yb7yLBPP39evHk-14" value="15" style="ellipse;whiteSpace=wrap;html=1;aspect=fixed;" vertex="1" parent="1">
          <mxGeometry x="-50" y="710" width="60" height="60" as="geometry" />
        </mxCell>
        <mxCell id="zvUFs4yb7yLBPP39evHk-17" style="edgeStyle=orthogonalEdgeStyle;rounded=0;orthogonalLoop=1;jettySize=auto;html=1;" edge="1" parent="1" source="zvUFs4yb7yLBPP39evHk-16" target="zvUFs4yb7yLBPP39evHk-18">
          <mxGeometry relative="1" as="geometry">
            <mxPoint x="240" y="380" as="targetPoint" />
          </mxGeometry>
        </mxCell>
        <mxCell id="zvUFs4yb7yLBPP39evHk-16" value="7" style="ellipse;whiteSpace=wrap;html=1;aspect=fixed;" vertex="1" parent="1">
          <mxGeometry x="210" y="290" width="60" height="60" as="geometry" />
        </mxCell>
        <mxCell id="zvUFs4yb7yLBPP39evHk-19" style="edgeStyle=orthogonalEdgeStyle;rounded=0;orthogonalLoop=1;jettySize=auto;html=1;" edge="1" parent="1" source="zvUFs4yb7yLBPP39evHk-18" target="zvUFs4yb7yLBPP39evHk-20">
          <mxGeometry relative="1" as="geometry">
            <mxPoint x="240" y="480" as="targetPoint" />
          </mxGeometry>
        </mxCell>
        <mxCell id="zvUFs4yb7yLBPP39evHk-18" value="8.1" style="ellipse;whiteSpace=wrap;html=1;aspect=fixed;" vertex="1" parent="1">
          <mxGeometry x="210" y="370" width="60" height="60" as="geometry" />
        </mxCell>
        <mxCell id="zvUFs4yb7yLBPP39evHk-21" style="edgeStyle=orthogonalEdgeStyle;rounded=0;orthogonalLoop=1;jettySize=auto;html=1;" edge="1" parent="1" source="zvUFs4yb7yLBPP39evHk-20" target="zvUFs4yb7yLBPP39evHk-22">
          <mxGeometry relative="1" as="geometry">
            <mxPoint x="170" y="580" as="targetPoint" />
          </mxGeometry>
        </mxCell>
        <mxCell id="zvUFs4yb7yLBPP39evHk-24" style="edgeStyle=orthogonalEdgeStyle;rounded=0;orthogonalLoop=1;jettySize=auto;html=1;" edge="1" parent="1" source="zvUFs4yb7yLBPP39evHk-20" target="zvUFs4yb7yLBPP39evHk-25">
          <mxGeometry relative="1" as="geometry">
            <mxPoint x="340" y="530" as="targetPoint" />
            <Array as="points">
              <mxPoint x="340" y="480" />
            </Array>
          </mxGeometry>
        </mxCell>
        <mxCell id="zvUFs4yb7yLBPP39evHk-20" value="8.2" style="ellipse;whiteSpace=wrap;html=1;aspect=fixed;" vertex="1" parent="1">
          <mxGeometry x="210" y="450" width="60" height="60" as="geometry" />
        </mxCell>
        <mxCell id="zvUFs4yb7yLBPP39evHk-43" style="edgeStyle=orthogonalEdgeStyle;rounded=0;orthogonalLoop=1;jettySize=auto;html=1;entryX=1;entryY=0;entryDx=0;entryDy=0;" edge="1" parent="1" source="zvUFs4yb7yLBPP39evHk-22" target="zvUFs4yb7yLBPP39evHk-14">
          <mxGeometry relative="1" as="geometry" />
        </mxCell>
        <mxCell id="zvUFs4yb7yLBPP39evHk-22" value="14" style="ellipse;whiteSpace=wrap;html=1;aspect=fixed;" vertex="1" parent="1">
          <mxGeometry x="90" y="620" width="60" height="60" as="geometry" />
        </mxCell>
        <mxCell id="zvUFs4yb7yLBPP39evHk-26" style="edgeStyle=orthogonalEdgeStyle;rounded=0;orthogonalLoop=1;jettySize=auto;html=1;" edge="1" parent="1" source="zvUFs4yb7yLBPP39evHk-25" target="zvUFs4yb7yLBPP39evHk-27">
          <mxGeometry relative="1" as="geometry">
            <mxPoint x="340" y="600" as="targetPoint" />
          </mxGeometry>
        </mxCell>
        <mxCell id="zvUFs4yb7yLBPP39evHk-25" value="9" style="ellipse;whiteSpace=wrap;html=1;aspect=fixed;" vertex="1" parent="1">
          <mxGeometry x="310" y="500" width="60" height="60" as="geometry" />
        </mxCell>
        <mxCell id="zvUFs4yb7yLBPP39evHk-28" style="edgeStyle=orthogonalEdgeStyle;rounded=0;orthogonalLoop=1;jettySize=auto;html=1;" edge="1" parent="1" source="zvUFs4yb7yLBPP39evHk-27" target="zvUFs4yb7yLBPP39evHk-29">
          <mxGeometry relative="1" as="geometry">
            <mxPoint x="440" y="660" as="targetPoint" />
            <Array as="points">
              <mxPoint x="480" y="600" />
            </Array>
          </mxGeometry>
        </mxCell>
        <mxCell id="zvUFs4yb7yLBPP39evHk-30" style="edgeStyle=orthogonalEdgeStyle;rounded=0;orthogonalLoop=1;jettySize=auto;html=1;" edge="1" parent="1" source="zvUFs4yb7yLBPP39evHk-27" target="zvUFs4yb7yLBPP39evHk-31">
          <mxGeometry relative="1" as="geometry">
            <mxPoint x="270" y="660" as="targetPoint" />
            <Array as="points">
              <mxPoint x="240" y="600" />
            </Array>
          </mxGeometry>
        </mxCell>
        <mxCell id="zvUFs4yb7yLBPP39evHk-27" value="10" style="ellipse;whiteSpace=wrap;html=1;aspect=fixed;" vertex="1" parent="1">
          <mxGeometry x="310" y="585" width="60" height="60" as="geometry" />
        </mxCell>
        <mxCell id="zvUFs4yb7yLBPP39evHk-41" style="edgeStyle=orthogonalEdgeStyle;rounded=0;orthogonalLoop=1;jettySize=auto;html=1;entryX=1.003;entryY=0.323;entryDx=0;entryDy=0;entryPerimeter=0;" edge="1" parent="1" source="zvUFs4yb7yLBPP39evHk-29" target="zvUFs4yb7yLBPP39evHk-31">
          <mxGeometry relative="1" as="geometry" />
        </mxCell>
        <mxCell id="zvUFs4yb7yLBPP39evHk-29" value="11" style="ellipse;whiteSpace=wrap;html=1;aspect=fixed;" vertex="1" parent="1">
          <mxGeometry x="460" y="620" width="60" height="60" as="geometry" />
        </mxCell>
        <mxCell id="zvUFs4yb7yLBPP39evHk-35" style="edgeStyle=orthogonalEdgeStyle;rounded=0;orthogonalLoop=1;jettySize=auto;html=1;" edge="1" parent="1" source="zvUFs4yb7yLBPP39evHk-31" target="zvUFs4yb7yLBPP39evHk-36">
          <mxGeometry relative="1" as="geometry">
            <mxPoint x="360" y="750" as="targetPoint" />
          </mxGeometry>
        </mxCell>
        <mxCell id="zvUFs4yb7yLBPP39evHk-38" style="edgeStyle=orthogonalEdgeStyle;rounded=0;orthogonalLoop=1;jettySize=auto;html=1;" edge="1" parent="1" source="zvUFs4yb7yLBPP39evHk-31" target="zvUFs4yb7yLBPP39evHk-39">
          <mxGeometry relative="1" as="geometry">
            <mxPoint x="200" y="750" as="targetPoint" />
            <Array as="points">
              <mxPoint x="200" y="690" />
            </Array>
          </mxGeometry>
        </mxCell>
        <mxCell id="zvUFs4yb7yLBPP39evHk-31" value="12" style="ellipse;whiteSpace=wrap;html=1;aspect=fixed;" vertex="1" parent="1">
          <mxGeometry x="210" y="640" width="60" height="60" as="geometry" />
        </mxCell>
        <mxCell id="zvUFs4yb7yLBPP39evHk-37" style="edgeStyle=orthogonalEdgeStyle;rounded=0;orthogonalLoop=1;jettySize=auto;html=1;" edge="1" parent="1" source="zvUFs4yb7yLBPP39evHk-36" target="zvUFs4yb7yLBPP39evHk-20">
          <mxGeometry relative="1" as="geometry">
            <Array as="points">
              <mxPoint x="600" y="750" />
              <mxPoint x="600" y="460" />
            </Array>
          </mxGeometry>
        </mxCell>
        <mxCell id="zvUFs4yb7yLBPP39evHk-36" value="8.3" style="ellipse;whiteSpace=wrap;html=1;aspect=fixed;" vertex="1" parent="1">
          <mxGeometry x="330" y="720" width="60" height="60" as="geometry" />
        </mxCell>
        <mxCell id="zvUFs4yb7yLBPP39evHk-40" style="edgeStyle=orthogonalEdgeStyle;rounded=0;orthogonalLoop=1;jettySize=auto;html=1;entryX=0;entryY=0.5;entryDx=0;entryDy=0;" edge="1" parent="1" source="zvUFs4yb7yLBPP39evHk-39" target="zvUFs4yb7yLBPP39evHk-36">
          <mxGeometry relative="1" as="geometry" />
        </mxCell>
        <mxCell id="zvUFs4yb7yLBPP39evHk-39" value="13" style="ellipse;whiteSpace=wrap;html=1;aspect=fixed;" vertex="1" parent="1">
          <mxGeometry x="170" y="720" width="60" height="60" as="geometry" />
        </mxCell>
        <mxCell id="zvUFs4yb7yLBPP39evHk-70" style="edgeStyle=orthogonalEdgeStyle;rounded=0;orthogonalLoop=1;jettySize=auto;html=1;entryX=0.5;entryY=0;entryDx=0;entryDy=0;" edge="1" parent="1" source="zvUFs4yb7yLBPP39evHk-44" target="zvUFs4yb7yLBPP39evHk-67">
          <mxGeometry relative="1" as="geometry" />
        </mxCell>
        <mxCell id="zvUFs4yb7yLBPP39evHk-44" value="16" style="ellipse;whiteSpace=wrap;html=1;aspect=fixed;" vertex="1" parent="1">
          <mxGeometry x="80" y="830" width="60" height="60" as="geometry" />
        </mxCell>
        <mxCell id="zvUFs4yb7yLBPP39evHk-47" style="edgeStyle=orthogonalEdgeStyle;rounded=0;orthogonalLoop=1;jettySize=auto;html=1;" edge="1" parent="1" source="zvUFs4yb7yLBPP39evHk-46" target="zvUFs4yb7yLBPP39evHk-48">
          <mxGeometry relative="1" as="geometry">
            <mxPoint x="-210" y="950" as="targetPoint" />
            <Array as="points">
              <mxPoint x="-210" y="850" />
            </Array>
          </mxGeometry>
        </mxCell>
        <mxCell id="zvUFs4yb7yLBPP39evHk-49" style="edgeStyle=orthogonalEdgeStyle;rounded=0;orthogonalLoop=1;jettySize=auto;html=1;" edge="1" parent="1" source="zvUFs4yb7yLBPP39evHk-46" target="zvUFs4yb7yLBPP39evHk-50">
          <mxGeometry relative="1" as="geometry">
            <mxPoint x="-50" y="940" as="targetPoint" />
            <Array as="points">
              <mxPoint x="20" y="860" />
            </Array>
          </mxGeometry>
        </mxCell>
        <mxCell id="zvUFs4yb7yLBPP39evHk-46" value="17" style="ellipse;whiteSpace=wrap;html=1;aspect=fixed;" vertex="1" parent="1">
          <mxGeometry x="-180" y="820" width="60" height="60" as="geometry" />
        </mxCell>
        <mxCell id="zvUFs4yb7yLBPP39evHk-66" style="edgeStyle=orthogonalEdgeStyle;rounded=0;orthogonalLoop=1;jettySize=auto;html=1;" edge="1" parent="1" source="zvUFs4yb7yLBPP39evHk-48" target="zvUFs4yb7yLBPP39evHk-67">
          <mxGeometry relative="1" as="geometry">
            <mxPoint x="-220" y="1460" as="targetPoint" />
            <Array as="points">
              <mxPoint x="-230" y="1470" />
            </Array>
          </mxGeometry>
        </mxCell>
        <mxCell id="zvUFs4yb7yLBPP39evHk-48" value="22" style="ellipse;whiteSpace=wrap;html=1;aspect=fixed;" vertex="1" parent="1">
          <mxGeometry x="-260" y="1230" width="60" height="60" as="geometry" />
        </mxCell>
        <mxCell id="zvUFs4yb7yLBPP39evHk-51" style="edgeStyle=orthogonalEdgeStyle;rounded=0;orthogonalLoop=1;jettySize=auto;html=1;" edge="1" parent="1" source="zvUFs4yb7yLBPP39evHk-50" target="zvUFs4yb7yLBPP39evHk-52">
          <mxGeometry relative="1" as="geometry">
            <mxPoint x="-50" y="1020" as="targetPoint" />
          </mxGeometry>
        </mxCell>
        <mxCell id="zvUFs4yb7yLBPP39evHk-50" value="18.1" style="ellipse;whiteSpace=wrap;html=1;aspect=fixed;" vertex="1" parent="1">
          <mxGeometry x="-10" y="930" width="60" height="60" as="geometry" />
        </mxCell>
        <mxCell id="zvUFs4yb7yLBPP39evHk-53" style="edgeStyle=orthogonalEdgeStyle;rounded=0;orthogonalLoop=1;jettySize=auto;html=1;" edge="1" parent="1" source="zvUFs4yb7yLBPP39evHk-52" target="zvUFs4yb7yLBPP39evHk-54">
          <mxGeometry relative="1" as="geometry">
            <mxPoint x="-130" y="1130" as="targetPoint" />
          </mxGeometry>
        </mxCell>
        <mxCell id="zvUFs4yb7yLBPP39evHk-56" style="edgeStyle=orthogonalEdgeStyle;rounded=0;orthogonalLoop=1;jettySize=auto;html=1;" edge="1" parent="1" source="zvUFs4yb7yLBPP39evHk-52" target="zvUFs4yb7yLBPP39evHk-57">
          <mxGeometry relative="1" as="geometry">
            <mxPoint x="110" y="1140" as="targetPoint" />
            <Array as="points">
              <mxPoint x="150" y="1080" />
            </Array>
          </mxGeometry>
        </mxCell>
        <mxCell id="zvUFs4yb7yLBPP39evHk-52" value="18.2" style="ellipse;whiteSpace=wrap;html=1;aspect=fixed;" vertex="1" parent="1">
          <mxGeometry x="-10" y="1050" width="60" height="60" as="geometry" />
        </mxCell>
        <mxCell id="zvUFs4yb7yLBPP39evHk-55" style="edgeStyle=orthogonalEdgeStyle;rounded=0;orthogonalLoop=1;jettySize=auto;html=1;" edge="1" parent="1" source="zvUFs4yb7yLBPP39evHk-54" target="zvUFs4yb7yLBPP39evHk-48">
          <mxGeometry relative="1" as="geometry">
            <Array as="points">
              <mxPoint x="-140" y="1260" />
            </Array>
          </mxGeometry>
        </mxCell>
        <mxCell id="zvUFs4yb7yLBPP39evHk-54" value="21" style="ellipse;whiteSpace=wrap;html=1;aspect=fixed;" vertex="1" parent="1">
          <mxGeometry x="-160" y="1100" width="60" height="60" as="geometry" />
        </mxCell>
        <mxCell id="zvUFs4yb7yLBPP39evHk-60" style="edgeStyle=orthogonalEdgeStyle;rounded=0;orthogonalLoop=1;jettySize=auto;html=1;" edge="1" parent="1" source="zvUFs4yb7yLBPP39evHk-57" target="zvUFs4yb7yLBPP39evHk-61">
          <mxGeometry relative="1" as="geometry">
            <mxPoint x="70" y="1220" as="targetPoint" />
          </mxGeometry>
        </mxCell>
        <mxCell id="zvUFs4yb7yLBPP39evHk-63" style="edgeStyle=orthogonalEdgeStyle;rounded=0;orthogonalLoop=1;jettySize=auto;html=1;entryX=0.5;entryY=0;entryDx=0;entryDy=0;" edge="1" parent="1" source="zvUFs4yb7yLBPP39evHk-57" target="zvUFs4yb7yLBPP39evHk-62">
          <mxGeometry relative="1" as="geometry" />
        </mxCell>
        <mxCell id="zvUFs4yb7yLBPP39evHk-57" value="19" style="ellipse;whiteSpace=wrap;html=1;aspect=fixed;" vertex="1" parent="1">
          <mxGeometry x="120" y="1110" width="60" height="60" as="geometry" />
        </mxCell>
        <mxCell id="zvUFs4yb7yLBPP39evHk-64" style="edgeStyle=orthogonalEdgeStyle;rounded=0;orthogonalLoop=1;jettySize=auto;html=1;entryX=0;entryY=0.5;entryDx=0;entryDy=0;" edge="1" parent="1" source="zvUFs4yb7yLBPP39evHk-61" target="zvUFs4yb7yLBPP39evHk-62">
          <mxGeometry relative="1" as="geometry" />
        </mxCell>
        <mxCell id="zvUFs4yb7yLBPP39evHk-61" value="20" style="ellipse;whiteSpace=wrap;html=1;aspect=fixed;" vertex="1" parent="1">
          <mxGeometry x="40" y="1190" width="60" height="60" as="geometry" />
        </mxCell>
        <mxCell id="zvUFs4yb7yLBPP39evHk-65" style="edgeStyle=orthogonalEdgeStyle;rounded=0;orthogonalLoop=1;jettySize=auto;html=1;entryX=1;entryY=0;entryDx=0;entryDy=0;" edge="1" parent="1" source="zvUFs4yb7yLBPP39evHk-62" target="zvUFs4yb7yLBPP39evHk-52">
          <mxGeometry relative="1" as="geometry">
            <Array as="points">
              <mxPoint x="320" y="1230" />
              <mxPoint x="320" y="1059" />
            </Array>
          </mxGeometry>
        </mxCell>
        <mxCell id="zvUFs4yb7yLBPP39evHk-62" value="18.3" style="ellipse;whiteSpace=wrap;html=1;aspect=fixed;" vertex="1" parent="1">
          <mxGeometry x="220" y="1200" width="60" height="60" as="geometry" />
        </mxCell>
        <mxCell id="zvUFs4yb7yLBPP39evHk-67" value="23" style="ellipse;whiteSpace=wrap;html=1;aspect=fixed;" vertex="1" parent="1">
          <mxGeometry x="370" y="1440" width="60" height="60" as="geometry" />
        </mxCell>
      </root>
    </mxGraphModel>
  </diagram>
</mxfile>
